<svg width="292" height="63" viewBox="0 0 292 63" fill="none" xmlns="http://www.w3.org/2000/svg">
<path d="M94.1798 33.89H89.3498C88.2648 33.89 87.5298 34.66 87.5298 35.745V47.855C87.5298 48.94 88.2648 49.71 89.3498 49.71H94.1798C95.2648 49.71 95.9998 48.94 95.9998 47.855V46.42L96.2098 46.21H99.2898L99.4998 46.42V48.38C99.4998 51.04 97.5398 53 94.9148 53H88.5448C85.9198 53 83.9598 51.04 83.9598 48.38V35.22C83.9598 32.56 85.9198 30.6 88.5448 30.6H94.9148C97.5398 30.6 99.4998 32.56 99.4998 35.22V37.18L99.2898 37.39H96.2098L95.9998 37.18V35.745C95.9998 34.66 95.2648 33.89 94.1798 33.89Z" fill="#494949"/>
<path d="M113.047 33.89H108.217C107.132 33.89 106.397 34.66 106.397 35.745V47.855C106.397 48.94 107.132 49.71 108.217 49.71H113.047C114.132 49.71 114.867 48.94 114.867 47.855V46.42L115.077 46.21H118.157L118.367 46.42V48.38C118.367 51.04 116.407 53 113.782 53H107.412C104.787 53 102.827 51.04 102.827 48.38V35.22C102.827 32.56 104.787 30.6 107.412 30.6H113.782C116.407 30.6 118.367 32.56 118.367 35.22V37.18L118.157 37.39H115.077L114.867 37.18V35.745C114.867 34.66 114.132 33.89 113.047 33.89Z" fill="#494949"/>
<path d="M131.914 33.89H127.084C125.999 33.89 125.264 34.66 125.264 35.745V47.855C125.264 48.94 125.999 49.71 127.084 49.71H131.914C132.999 49.71 133.734 48.94 133.734 47.855V44.215H129.499V40.96H137.024L137.234 41.17V48.38C137.234 51.04 135.274 53 132.649 53H126.279C123.654 53 121.694 51.04 121.694 48.38V35.22C121.694 32.56 123.654 30.6 126.279 30.6H132.649C135.274 30.6 137.234 32.56 137.234 35.22V37.18L137.024 37.39H133.944L133.734 37.18V35.745C133.734 34.66 132.999 33.89 131.914 33.89Z" fill="#494949"/>
<path d="M157.994 53H146.899V49.815H150.679V33.785H146.899V30.6H157.994V33.785H154.249V49.815H157.994V53Z" fill="#494949"/>
<path d="M164.464 53H161.734L161.419 52.685V35.43L161.734 35.15H165.409L165.619 35.36L171.464 47.61V35.36L171.674 35.15H174.614L174.824 35.36V52.79L174.614 53H170.659L170.449 52.79L164.744 40.715V52.685L164.464 53Z" fill="#494949"/>
<path d="M185.207 50.06L189.057 35.36L189.267 35.15H192.312L192.522 35.36L187.867 52.79L187.657 53H182.407L182.197 52.79L177.507 35.36L177.717 35.15H180.797L181.007 35.36L184.787 50.06H185.207Z" fill="#494949"/>
<path d="M195.433 53L195.223 52.79V35.36L195.433 35.15H207.263V38.09H198.723V42.43H206.388V45.405H198.723V50.025H207.263V53H195.433Z" fill="#494949"/>
<path d="M214.196 53H211.466L211.151 52.685V35.43L211.466 35.15H215.141L215.351 35.36L221.196 47.61V35.36L221.406 35.15H224.346L224.556 35.36V52.79L224.346 53H220.391L220.181 52.79L214.476 40.715V52.685L214.196 53Z" fill="#494949"/>
<path d="M227.413 38.09V35.15H241.063V38.09H235.988V52.79L235.778 53H232.698L232.488 52.79V38.09H227.413Z" fill="#494949"/>
<path d="M256.984 38.965V49.185C256.984 51.355 255.234 53 252.924 53H247.639C245.294 53 243.579 51.355 243.579 49.185V38.965C243.579 36.76 245.294 35.15 247.639 35.15H252.924C255.234 35.15 256.984 36.76 256.984 38.965ZM247.079 39.35V48.765C247.079 49.535 247.604 50.025 248.304 50.025H252.259C252.994 50.025 253.484 49.535 253.484 48.765V39.35C253.484 38.615 252.994 38.09 252.259 38.09H248.304C247.604 38.09 247.079 38.615 247.079 39.35Z" fill="#494949"/>
<path d="M271.268 53L266.788 45.895H264.758V52.79L264.548 53H261.468L261.258 52.79V35.36L261.468 35.15H270.603C272.948 35.15 274.663 36.76 274.663 38.965V42.08C274.663 44.18 272.808 45.72 270.708 45.895L275.013 52.79L274.803 53H271.268ZM269.938 38.09H264.758V42.955H269.938C270.673 42.955 271.163 42.43 271.163 41.695V39.35C271.163 38.615 270.673 38.09 269.938 38.09Z" fill="#494949"/>
<path d="M284.969 53H281.889L281.679 52.79V45.475L275.764 35.36L275.974 35.15H279.369L283.429 42.29L287.384 35.15H290.814L291.024 35.36L285.179 45.475V52.79L284.969 53Z" fill="#494949"/>
<path d="M27.9857 0.955577C30.3155 -0.26876 33.0986 -0.268762 35.4285 0.955574L58.3519 13.0016C60.9828 14.3842 62.6304 17.1113 62.6304 20.0834V42.9166C62.6304 45.8887 60.9828 48.6158 58.3518 49.9984L35.4285 62.0444C33.0986 63.2688 30.3155 63.2688 27.9857 62.0444L5.06229 49.9984C2.43134 48.6158 0.783691 45.8887 0.783691 42.9166V20.0834C0.783691 17.1113 2.43134 14.3842 5.06229 13.0016L27.9857 0.955577Z" fill="#6268FF"/>
<path d="M29.1384 32.3639C29.7974 32.7091 30.2104 33.3916 30.2104 34.1356L30.2104 45.2999C30.2104 46.8032 28.614 47.7691 27.2823 47.0715L16.3153 41.3269C15.6562 40.9817 15.2433 40.2992 15.2433 39.5552V28.3909C15.2433 26.8876 16.8396 25.9217 18.1713 26.6193L29.1384 32.3639Z" fill="white"/>
<path d="M34.2757 32.3639C33.6166 32.7091 33.2037 33.3916 33.2037 34.1356L33.2037 45.2999C33.2037 46.8032 34.8001 47.7691 36.1317 47.0715L47.0988 41.3269C47.7578 40.9817 48.1708 40.2992 48.1708 39.5552V28.3909C48.1708 26.8876 46.5744 25.9217 45.2428 26.6193L34.2757 32.3639Z" fill="white"/>
<path d="M30.782 14.8774C31.3617 14.575 32.0526 14.575 32.6323 14.8774L43.0619 20.319C44.495 21.0667 44.495 23.1176 43.0619 23.8653L32.6323 29.3068C32.0526 29.6093 31.3617 29.6093 30.782 29.3068L20.3524 23.8653C18.9193 23.1176 18.9193 21.0667 20.3524 20.319L30.782 14.8774Z" fill="white"/>
</svg>