<svg width="63" height="63" viewBox="0 0 63 63" fill="none" xmlns="http://www.w3.org/2000/svg">
<path d="M27.9859 0.955607C30.3158 -0.26873 33.0988 -0.268732 35.4287 0.955605L58.3521 13.0017C60.983 14.3842 62.6307 17.1113 62.6307 20.0834V42.9167C62.6307 45.8887 60.983 48.6159 58.3521 49.9984L35.4287 62.0445C33.0988 63.2688 30.3158 63.2688 27.9859 62.0445L5.06254 49.9984C2.43159 48.6159 0.783936 45.8887 0.783936 42.9167V20.0834C0.783936 17.1113 2.43158 14.3842 5.06253 13.0017L27.9859 0.955607Z" fill="#6268FF"/>
<path d="M29.1386 32.364C29.7977 32.7092 30.2106 33.3917 30.2106 34.1356L30.2106 45.2999C30.2106 46.8032 28.6143 47.7691 27.2826 47.0716L16.3155 41.3269C15.6565 40.9817 15.2435 40.2992 15.2435 39.5552V28.391C15.2435 26.8877 16.8399 25.9217 18.1715 26.6193L29.1386 32.364Z" fill="white"/>
<path d="M34.2759 32.364C33.6169 32.7092 33.2039 33.3917 33.2039 34.1356L33.204 45.2999C33.204 46.8032 34.8003 47.7691 36.132 47.0716L47.099 41.3269C47.7581 40.9817 48.171 40.2992 48.171 39.5552V28.391C48.171 26.8877 46.5747 25.9217 45.243 26.6193L34.2759 32.364Z" fill="white"/>
<path d="M30.7823 14.8775C31.3619 14.575 32.0529 14.575 32.6325 14.8775L43.0621 20.319C44.4953 21.0667 44.4953 23.1176 43.0621 23.8653L32.6325 29.3069C32.0529 29.6093 31.3619 29.6093 30.7823 29.3069L20.3527 23.8653C18.9195 23.1176 18.9195 21.0667 20.3527 20.319L30.7823 14.8775Z" fill="white"/>
</svg>